inDegrees=no
num_controls=7
num_derivatives=13
num_iterations=135
num_multipliers=7
num_parameters=0
num_slacks=7
num_states=26
objective=4.400326
objective_accelerations=0.105489
objective_balance=0.027241
objective_effort=0.208214
objective_height=4.009061
objective_ligament=0.050320
solver_duration=1422.535173
status=Solve_Succeeded
success=true
DataType=double
version=3
OpenSimVersion=4.4-2022-07-23-0e9fedc
endheader
time	/jointset/ground_pelvis/pelvis_tilt/value	/jointset/ground_pelvis/pelvis_tx/value	/jointset/ground_pelvis/pelvis_ty/value	/jointset/hip_l/hip_flexion_l/value	/jointset/hip_l/hip_adduction_l/value	/jointset/hip_l/hip_rotation_l/value	/jointset/back/lumbar_extension/value	/jointset/patellofemoral_l/patellar_flexion_l/value	/jointset/knee_l/knee_flexion_l/value	/jointset/knee_l/knee_adduction_l/value	/jointset/knee_l/knee_rotation_l/value	/jointset/ankle_l/ankle_angle_l/value	/jointset/subtalar_l/subtalar_angle_l/value	/jointset/ground_pelvis/pelvis_tilt/speed	/jointset/ground_pelvis/pelvis_tx/speed	/jointset/ground_pelvis/pelvis_ty/speed	/jointset/hip_l/hip_flexion_l/speed	/jointset/hip_l/hip_adduction_l/speed	/jointset/hip_l/hip_rotation_l/speed	/jointset/back/lumbar_extension/speed	/jointset/patellofemoral_l/patellar_flexion_l/speed	/jointset/knee_l/knee_flexion_l/speed	/jointset/knee_l/knee_adduction_l/speed	/jointset/knee_l/knee_rotation_l/speed	/jointset/ankle_l/ankle_angle_l/speed	/jointset/subtalar_l/subtalar_angle_l/speed	/forceset/tau_hip_flexion_l	/forceset/tau_hip_adduction_l	/forceset/tau_hip_rotation_l	/forceset/tau_knee_flexion_l	/forceset/tau_ankle_angle_l	/forceset/tau_subtalar_angle_l	/forceset/tau_lumbar_extension	lambda_cid13_p0	lambda_cid13_p1	lambda_cid13_p2	lambda_cid13_p3	lambda_cid13_p4	lambda_cid13_p5	lambda_cid14_p0	/jointset/ground_pelvis/pelvis_tilt/accel	/jointset/ground_pelvis/pelvis_tx/accel	/jointset/ground_pelvis/pelvis_ty/accel	/jointset/hip_l/hip_flexion_l/accel	/jointset/hip_l/hip_adduction_l/accel	/jointset/hip_l/hip_rotation_l/accel	/jointset/back/lumbar_extension/accel	/jointset/patellofemoral_l/patellar_flexion_l/accel	/jointset/knee_l/knee_flexion_l/accel	/jointset/knee_l/knee_adduction_l/accel	/jointset/knee_l/knee_rotation_l/accel	/jointset/ankle_l/ankle_angle_l/accel	/jointset/subtalar_l/subtalar_angle_l/accel	gamma_cid13_p0	gamma_cid13_p1	gamma_cid13_p2	gamma_cid13_p3	gamma_cid13_p4	gamma_cid13_p5	gamma_cid14_p0
1	0.1864826462160393	0.02524456886328444	0.8913808925498325	0.3395618102950184	-0.3420440399002412	-0.1416204054135584	-0.9599309640334261	0.6614365382209643	0.6614365382214984	-0.1743603110372253	-0.1745254001215655	0.1783109101591064	0.01045816525479844	0.1247117829719673	0.0334385938015507	0.03776919932772494	-0.2920989531991831	0.01121223548551868	-0.067037292481188	-0.006351421246286247	-0.1632705991462917	-0.1632705991462477	0.001035484601064861	1.499673725366803e-06	-0.00465730315130233	0.01268992223106944	-0.1530393625678316	0.04920410583201228	0.001873520140036935	-0.2178578597691991	-0.007771095835913221	0.03419292176006385	0.2975287103430663	-48.94470709919686	-9.156501627233791	4.291006371112021	8.535646307538718	-732.7679136649577	-74.65261231950919	-19.25409359124518	-0.4600343452178684	0.07796160316312885	0.2689556530836952	-0.8446484931835879	0.1681242795087341	-0.8143569697224252	1.548680639982164	-2.068983180281939	-2.06898318028178	0.02510816802499222	0.007639348732523154	-0.8998460798438505	-0.1157862878477729	-9.810300659778754e-09	1.224622956069688e-08	2.789576338220866e-08	9.06379428421137e-09	-2.543238917530944e-08	3.125415425180674e-09	-3.902994345935151e-09
1.01	0.1877062843953346	0.02558295138364675	0.8917718989308361	0.3365994842648832	-0.3419233193342556	-0.1423318557283773	-0.9599161104719119	0.659701098874158	0.6597010988745885	-0.1743479750636016	-0.1745252995120491	0.1782197408454119	0.01057964807129238	0.1199935955155025	0.03424837712748806	0.04042669273124003	-0.3003443249377294	0.01293344062387843	-0.07524829954278001	0.009386561755920666	-0.1838057786011485	-0.1838057786011502	0.001429410734333911	1.701461540608239e-05	-0.01356304767633782	0.01161277003357101	-0.15252596131334	0.04926327413964685	0.001849198495060935	-0.21742208369396	-0.007934654839765866	0.03414682832678111	0.2974283548365249	-48.99146076977001	-9.139156942640486	4.300645905015915	8.401602439436694	-732.7642181055163	-74.65190397284844	-19.30788620595269	-0.4810502519405334	0.08405882524713851	0.2633328430973954	-0.8111936177127246	0.1743487629656536	-0.8238062894514814	1.596021364074001	-2.044060598316311	-2.044060598323388	0.0461923447795371	-0.001726943210637112	-0.8839123932716616	-0.1027658323231771	-1.189580000109861e-08	1.073138916740498e-08	3.377649858049819e-08	1.048414006094176e-08	-2.856635162285935e-08	-4.450749272020304e-10	-4.929676097521154e-09
1.02	0.1888820728388533	0.02592974616285507	0.8921893175776964	0.3335553620966438	-0.3417853406904888	-0.1431252828568201	-0.9597419442337766	0.6577606526787809	0.6577606526790633	-0.1743317683269224	-0.1745250906551194	0.1780399193355816	0.01069054213648783	0.1151418358158465	0.03512104557075334	0.04305165249905319	-0.3084581808172114	0.01466385104086207	-0.08343265520732565	0.02551111410750024	-0.2042719688651514	-0.2042719688652001	0.001809637219687946	2.314915322512614e-05	-0.02238774237890153	0.01057217197118599	-0.1520125600589375	0.04932244244733483	0.001824876849906602	-0.2169863076187306	-0.008098213843600708	0.03410073489357097	0.2973279993299075	-49.04900335076817	-9.120158953283008	4.310290931099996	8.303581329378947	-732.9068540629	-74.65654874475035	-19.36777884619296	-0.4867487938560092	0.09053862662862473	0.2624489259432988	-0.818345321370698	0.1699653352334794	-0.8090266903130963	1.62599450985686	-2.055185342111147	-2.055185342111241	0.02236823844190477	0.00576326796019596	-0.8836361153496052	-0.1084754608251684	-1.339292047122359e-08	1.016303232990546e-08	3.821244691408184e-08	1.14956682958687e-08	-3.121264472365452e-08	-3.331710639393113e-09	-5.593078141069494e-09
1.03	0.1900087469813888	0.02628559191576098	0.8926328271157952	0.3304306564754412	-0.3416299840392252	-0.1440004341645805	-0.9594046631663122	0.6556158670605404	0.6556158670606252	-0.1743117893697857	-0.1745248509458992	0.1777722760331545	0.0107912534998489	0.1101777022867163	0.03605962478489378	0.04564526190044206	-0.3164712846551539	0.0164121038699401	-0.09159435731428774	0.04200362000273773	-0.2246762242757241	-0.224676224275775	0.002188124306835965	2.54656443963594e-05	-0.03112542148338822	0.009580586504755606	-0.1514489657175047	0.0493427470628337	0.001796039008264631	-0.2164430639421809	-0.008182196644199939	0.0340660110827483	0.2971391208287927	-49.06850957696047	-9.115232363357869	4.325005077805104	8.15055064049403	-732.8754665752435	-74.67771982070303	-19.43366660036513	-0.5035400503973281	0.09724804139416315	0.2570611773619758	-0.7910456535353473	0.1779433801842297	-0.8192601388661772	1.66965672197014	-2.031704810201088	-2.031704810201491	0.04588726370883682	-0.00242498398178079	-0.8665100917694587	-0.09293354022866417	-1.488403707531597e-08	9.604333487873226e-09	4.263365252455625e-08	1.250302492322621e-08	-3.385396160662566e-08	-6.211368243010809e-09	-6.252773248821529e-09
1.04	0.1910853209050481	0.02665116955532481	0.8931021215939323	0.3272261692681393	-0.341457007234979	-0.1449571061270037	-0.9589007014213731	0.6532673070542855	0.6532673070541219	-0.1742879658778364	-0.1745245662364884	0.1774177206829299	0.01088236231841118	0.1051217920393521	0.03706742290233608	0.04820864050666319	-0.3244144980343026	0.01818788163657744	-0.09973678614038585	0.05884724960250189	-0.245026846473122	-0.2450268464731751	0.002578544188303923	3.214918846980146e-05	-0.03977015193872213	0.008651663011262849	-0.1508853713761759	0.04936305167836485	0.001767201166457394	-0.2158998202656515	-0.008266179444790746	0.03403128727196952	0.2969502423275996	-49.09881190002507	-9.108670033144936	4.339749017711145	8.032574421589549	-732.9913060053578	-74.70453673584917	-19.50543157380591	-0.5051041375026866	0.1043824072888904	0.2564027669097374	-0.8043672296119122	0.1754703227453083	-0.8051720341402731	1.696219250762182	-2.044458699476146	-2.044458699476238	0.02475479730582842	0.006636678540616135	-0.865046385519179	-0.09594306623772557	-1.634898826591063e-08	8.963327701879261e-09	4.750717603941267e-08	1.330038564005917e-08	-3.599669210004998e-08	-9.568388176655744e-09	-6.980757908107399e-09
1.05	0.1921108280967174	0.02702715979509173	0.8935968736953623	0.3239427230825476	-0.3412661464193579	-0.1459950831631188	-0.9582265536444979	0.6507155899722608	0.6507155899722601	-0.1742602007172836	-0.1745242189947901	0.1769771884300592	0.0109644828806342	0.09995917571691014	0.0381410491279808	0.05073424787233337	-0.3322502834040157	0.0199881682579927	-0.1078526804733109	0.07604081478005308	-0.2652994813766086	-0.2652994813766908	0.002974962474952098	3.633552448695722e-05	-0.04832004919190779	0.007782234647124507	-0.1502021308788367	0.04933921248304467	0.001733352430149581	-0.2152511207801732	-0.00828319322603757	0.03398482609268303	0.2965859543712244	-49.09209359300274	-9.104602389629362	4.356158985626548	7.889312541694346	-732.8542024247419	-74.72735619293648	-19.58294387049403	-0.5249120446915415	0.1104191676227571	0.2495022890523635	-0.7695177002968296	0.1828837896755736	-0.8139138274234109	1.739701502457189	-2.016101053314648	-2.016101053319052	0.04715980521682696	-0.002824946703115695	-0.847524970031665	-0.08098217869460474	-1.781312178733348e-08	8.31974982388649e-09	5.239483448878102e-08	1.409118398468824e-08	-3.812384176880096e-08	-1.294032568311403e-08	-7.710876615878702e-09
